<svg xmlns="http://www.w3.org/2000/svg" width="48" height="48" viewBox="0 0 48 48">
  <defs>
    <style>
      .a {
        fill: none;
        stroke: #000;
        stroke-linecap: round;
        stroke-linejoin: round;
        stroke-width: 1.5px;
      }
    </style>
  </defs>
  <g>
    <path class="a" d="M21,26.62c-.23,0-.47,0-.71,0a6.68,6.68,0,0,1-1.73-.23L15.17,28.1V24.33A6.76,6.76,0,1,1,27,19.89v0C26.93,23.81,24.85,26,21,26.62Z"/>
    <path class="a" d="M21.32,28.8a6.76,6.76,0,0,0,6.42,4.63,6.69,6.69,0,0,0,1.73-.24l3.36,1.68V31.1a6.76,6.76,0,0,0-3.64-11"/>
    <path class="a" d="M18.81,17.75a1.4,1.4,0,0,1,1.45-1.31,1.29,1.29,0,0,1,1.45,1.31A1.47,1.47,0,0,1,20.92,19a1.38,1.38,0,0,0-.53.59,1.78,1.78,0,0,0-.13.84"/>
    <circle cx="20.26" cy="22.63" r="0.72"/>
  </g>
</svg>
